<?xml version="1.0" encoding="utf-8"?>
<!-- Generator: Adobe Illustrator 24.0.3, SVG Export Plug-In . SVG Version: 6.00 Build 0)  -->
<svg version="1.1" id="Lager_1" xmlns="http://www.w3.org/2000/svg" xmlns:xlink="http://www.w3.org/1999/xlink" x="0px" y="0px"
	 viewBox="0 0 841.89 595.28" style="enable-background:new 0 0 841.89 595.28;" xml:space="preserve">
<style type="text/css">
	.st0{clip-path:url(#XMLID_2_);}
</style>
<g id="XMLID_25_">
	<defs>
		<rect id="XMLID_24_" x="91.48" y="97.42" width="658.92" height="400.43"/>
	</defs>
	<clipPath id="XMLID_2_">
		<use xlink:href="#XMLID_24_"  style="overflow:visible;"/>
	</clipPath>
	<path id="XMLID_51_" class="st0" d="M577.67,238.63c3.22-0.93,9.78-2.3,15.9-4.76c5.8-2.33,9.51-6.91,9.26-13.72
		c-0.23-6.52-4.29-10.58-9.79-12.43c-6.54-2.2-13.5-4.35-20.27-4.34c-8.52,0.02-16.7,3.06-22.78,9.77
		c-4.75,5.23-4.72,10.88-0.06,16.2C556.39,236.71,565.09,238.09,577.67,238.63 M614.85,195.45c0.26-1.9,0.75-4.17,0.86-6.45
		c1.22-25.56,2.41-51.11,3.52-76.67c0.17-3.98,0-7.98-0.14-11.97c-0.07-2.11,0.69-2.95,2.86-2.93c7.28,0.09,14.57,0.03,22.37,0.03
		c0.37,57.97-2.11,115.3,1.56,173.61c-2.6,0-5.69,0.03-8.78-0.01c-5.5-0.07-11.01-0.32-16.51-0.25c-3.18,0.04-4.79-1.23-5.35-4.32
		c-0.87-4.83-1.91-9.23-2.92-14.22c-5.09,2.22-9.86,4.62-14.83,6.42c-20.24,7.29-40.07,7.47-59.09-3.97
		c-13.24-7.97-22.69-31.87-17.25-45.6c1.88-4.74,5.37-9.68,9.5-12.55c19.91-13.82,41.85-18.48,65.33-10.98
		C602.48,187.67,608.29,191.95,614.85,195.45"/>
	<path id="XMLID_48_" class="st0" d="M360.6,429.24c-10.42,0.4-19.13,3.27-23.44,13.39c-4.84,11.36-3.35,13.27,6.53,17.98
		c12.91,6.17,25.82,2.07,32.89-10.11c3.71-6.39,2.87-14.1-3.18-17.9C369.84,430.36,364.91,430.29,360.6,429.24 M369.03,405.6
		c-0.14-7.22-1.39-13.72-5.17-19.5c-2.59-3.95-6.5-5.04-11.2-3.82c-10.68,2.78-19.27,9.19-27.62,15.95
		c-2.45,1.98-4.08,2.46-6.53,0.06c-3.01-2.95-6.45-5.46-9.95-8.37c12.93-14.42,26.3-27.74,45.64-32.15
		c13.32-3.03,25.3,0.84,35.45,9.96c8.37,7.51,15.21,15.77,14.9,28.07c-0.19,7.54,0.74,15.11,0.67,22.66
		c-0.24,24.62-0.72,49.24-1.12,73.85c-0.01,0.8-0.19,1.6-0.36,2.89c-7.89-0.99-15.64-1.74-23.27-3.11c-1.3-0.23-2.15-3.04-3.66-5.37
		c-4.3,0.31-9.7,0.85-15.11,1.05c-13.45,0.49-26.74-0.26-38.78-7.18c-9.65-5.55-16.77-13.72-15.57-25.19
		c1.82-17.55,9.82-32.21,25.42-41.72c9.64-5.88,20.28-8.18,31.5-8.09C365.63,405.61,366.99,405.6,369.03,405.6"/>
	<path id="XMLID_19_" class="st0" d="M306.31,170.53H281.3c0-7.13-0.31-13.82,0.07-20.46c0.63-11.13-1.69-8.94,9.91-10.11
		c4.23-0.43,8.53-0.24,12.78-0.56c6.19-0.46,6.31-0.54,6.7-6.54c0.59-9.06,0.99-18.13,1.45-27.19c0.07-1.34,0.01-2.69,0.01-4.34
		h26.81c-0.79,14.7-1.56,29.18-2.37,44.17h22.99v28.41h-23.29c-1.02,6.27-2.82,12.68-2.96,19.14c-0.25,11.64,0.42,23.3,0.89,34.94
		c0.07,1.68,0.88,3.49,1.83,4.93c4.16,6.32,7.67,6.56,12.56,0.87c1.6-1.86,3.17-3.87,4.22-6.07c1.2-2.51,2.71-3.48,5.47-3
		c6.88,1.19,13.8,2.12,20.65,3.42c0.97,0.19,2.57,2.19,2.35,2.8c-4.12,11.26-9.07,22.06-17,31.29
		c-9.43,10.97-20.85,11.12-33.41,6.84c-13.85-4.71-19.16-12.05-21.09-26.64c-3.02-22.86-3.29-45.78-3.3-68.75
		C306.57,172.87,306.44,172.06,306.31,170.53"/>
	<path id="XMLID_18_" class="st0" d="M566.47,370.29c-8.91-0.79-17.48-1.56-26.44-2.36c0.76-6.47,1.51-12.57,2.16-18.67
		c0.25-2.39,1.46-3.23,3.8-3.3c8.25-0.26,13-0.86,21.25-0.94c3.83-0.04,4.36-0.85,5.09-5.15c1.99-15.29,2.77-17.23,3.48-32.63h23.5
		c-3.25,17.64-4.93,21.79-8.29,40.05c6.18,0,9.82,0.95,14.97,0.72c2.83-0.13,4.24,0.56,4.65,3.59c0.81,6.1,1.97,12.16,3.13,19.11
		c-5.64,0-10.78,0-15.93,0c-8.41,0-8.46,0-8.66,8.4c-0.43,17.74-1.41,35.49-0.97,53.2c0.23,9.48,0.49,16.84,2.43,26.22
		c0.47,2.28,3.88,6.68,6.68,7.61c2.64-0.93,3.96-2.44,5.13-4.54c3.4-6.09,6.34-12.45,9.71-19.21c7.15,3.2,14.63,6.51,22.04,9.96
		c0.59,0.28,1.19,1.63,1.02,2.29c-6.52,11.66-14.66,23.67-25.23,32.63c-15.48,13.13-31.25,9.11-39.36-9.68
		c-4.76-11.05-6.05-22.81-6.74-34.59c-1.38-23.27,0.44-46.46,2.6-69.62C566.54,372.58,566.47,371.77,566.47,370.29"/>
	<path id="XMLID_43_" class="st0" d="M723.38,192.01c-4.82-10.99-14.35-16.28-23.39-13.67c-6.32,1.82-10.23,8.76-9.11,16.81
		C701.54,194.12,712.23,193.08,723.38,192.01 M745.95,207.15c-11.1,0.73-21.9,1.47-32.7,2.14c-7.14,0.44-14.28,0.83-21.42,1.16
		c-2.58,0.12-3.99,1.01-3.13,3.8c1.64,5.33,2.43,11.18,5.18,15.87c5.62,9.58,18.66,9.04,24.41-0.53c1.33-2.21,1.98-4.81,3.28-7.04
		c0.59-1.01,2.06-2.27,3-2.17c8.45,0.88,16.86,2.04,25.83,3.19c-0.31,1.79-0.48,3.22-0.8,4.61c-4.43,19.24-17.39,30.2-35.38,36.12
		c-7.48,2.46-15.13,3.38-23.11,2.38c-13.65-1.7-22.38-9.33-28.08-21.18c-4.61-9.58-6.57-14.2-5.82-24.95
		c0.94-13.5,2.65-32.16,7.8-44.83c4.19-10.29,10.89-17.25,22.43-17.8c9.18-0.44,18.45-0.72,27.59,0.04
		c9.32,0.78,16.28,6.26,21.1,14.24C742.52,182.74,745.49,194.28,745.95,207.15"/>
	<path id="XMLID_15_" class="st0" d="M187.51,107.09c-0.97,9.41,0.14,18.41-1.04,27.38c-0.1,0.79-4.36,1.83-5.65,1.83
		c-12.66,0.06-25.32-0.05-37.99-0.17c-6.88-0.06-13.76-0.06-20.63-0.42c-3.7-0.19-4.87,1.14-4.67,4.73
		c0.26,4.5,0.06,9.03,0.06,14.59c5.44,0,10.75-0.01,16.05,0c6.19,0.02,12.39,0.15,18.58,0.07c2.9-0.04,4.23,0.83,4.09,4.02
		c-0.27,6.05-0.27,12.11-0.18,18.16c0.05,3.42-1,4.81-4.75,4.71c-9.63-0.27-19.27,0.08-28.9-0.16c-3.66-0.09-4.72,1.01-4.66,4.65
		c0.35,23.39,0.42,46.79,0.8,70.18c0.06,3.56-0.81,4.92-4.5,4.82c-7.51-0.21-15.04-0.06-22.63-0.06
		c1.55-51.21,3.11-102.59,4.68-154.32H187.51z"/>
	<path id="XMLID_39_" class="st0" d="M455.05,179.16c0.24-0.46,0.48-0.91,0.73-1.37c-4.28-3.73-8.43-7.63-12.89-11.12
		c-2.78-2.18-6.21-2.05-8.66,0.53c-3.97,4.19-7.53,8.78-11.99,14.07C434.45,183.95,444.76,181.66,455.05,179.16 M476.2,229.59
		c-3.76,13.71-11.4,23.67-24.58,29.07c-15.55,6.37-41.84,1.78-52.98-10.7c-3.83-4.29-5.43-10.97-6.92-16.85
		c-4.5-17.66-0.71-34.89,3.86-51.96c2.58-9.64,6.33-18.7,13.99-25.65c7.18-6.51,15.16-10.34,25.14-8.56
		c6.06,1.08,12.32,1.48,18.18,3.21c18.05,5.34,25.46,16.27,26.57,35.21c0.19,3.15-0.11,6.33,0.03,9.49
		c0.15,3.51-1.31,4.77-4.85,4.86c-15.12,0.36-30.23,1.1-45.36,1.38c-3.67,0.07-4.94,1.2-4.7,4.72c0.45,6.56,0.23,13.21,1.33,19.65
		c0.55,3.21,2.85,6.62,5.32,8.88c4.46,4.07,9.96,2.97,13.58-1.84c2.28-3.03,4.08-7.56,7.07-8.59c2.79-0.96,6.88,1.76,10.38,2.93
		C466.89,226.38,471.51,227.99,476.2,229.59"/>
	<path id="XMLID_36_" class="st0" d="M216.61,186.53c8.85-1.46,16.26-2.65,23.64-3.98c0.63-0.11,1.49-1.22,1.54-1.92
		c0.45-5.67-2.15-9.44-7.28-10.89c-6.67-1.88-12.67-0.09-15,5.15C218.06,178.14,217.72,181.88,216.61,186.53 M243.09,219.69
		c8.27,0.95,16.58,1.8,24.85,3c1.14,0.16,2.82,2.01,2.89,3.16c0.3,5.07,0.52,10.21-0.01,15.24c-0.72,6.86-4.23,12.3-9.88,16.45
		c-21.52,15.8-48.89,15.13-67.3-6.41c-2.61-3.06-3.82-7.53-5.04-11.54c-8.5-28.04-3.63-54.3,11.15-79.05
		c5.75-9.63,21.41-16,32.43-13.77c2.82,0.57,5.67,1.06,8.54,1.34c7.28,0.71,12.41,4.68,16.53,10.39
		c6.44,8.92,9.87,18.88,10.78,29.83c0.24,2.83-0.92,3.67-3.27,4.06c-15.56,2.61-31.1,5.32-46.67,7.81
		c-3.85,0.62-5.68,1.93-5.41,6.27c0.62,10.3,2.03,20.22,8.72,28.65c5.39,6.8,10.64,6.71,15.41-0.49c1.51-2.28,2.89-4.7,3.95-7.21
		C241.75,225.05,242.26,222.49,243.09,219.69"/>
	<path id="XMLID_10_" class="st0" d="M425.79,350.96c8.65-1.5,16.73-2.98,24.85-4.22c0.96-0.15,2.69,0.78,3.11,1.66
		c1.85,3.93,3.36,8.03,5.2,12.61c0.89-0.97,1.83-1.98,2.75-3.01c15.2-16.91,37.52-17.34,54.76-6.56
		c7.35,4.59,11.59,11.78,11.98,20.56c0.27,6.07-0.35,12.18-0.6,18.72c-8.07-0.55-14.93-0.87-21.73-1.63
		c-1.07-0.12-2.53-2.05-2.8-3.36c-3.64-17.55-17.81-19.14-30.46-14.25c-2.7,1.04-5.18,5.13-5.95,8.26
		c-2.39,9.69-5.04,19.53-5.51,29.42c-0.79,16.58,0.1,33.24,0.11,49.86c0,7.15-0.48,14.29-0.62,21.44c-0.06,3.02-1.32,4.08-4.35,3.84
		c-7.4-0.6-14.82-1.07-22.23-1.36c-3.14-0.13-3-2.07-3.04-4.21c-0.33-17.74-0.33-35.5-1.11-53.22c-0.96-21.83-2.58-43.64-3.9-65.46
		C426.09,357.19,425.96,354.32,425.79,350.96"/>
	<path id="XMLID_9_" class="st0" d="M210.27,307.73c8.4,0,16.22,0,24.04,0c2.79,0,2.39,2.01,2.39,3.79
		c-0.01,22.15-0.42,44.3,0.07,66.44c0.84,37.79,2.26,75.56,3.35,113.34c0.03,1.03-0.87,2.9-1.54,3c-9.33,1.33-18.69,2.43-27.83,3.55
		C202.68,434.32,208.78,371.39,210.27,307.73"/>
	<path id="XMLID_8_" class="st0" d="M235.56,98.36c12.42,16.87,24.68,33.53,37.66,51.15c-6.74,0-12.39,0.07-18.04-0.09
		c-0.71-0.02-1.44-1.17-2.06-1.89c-7.12-8.17-14.23-16.36-21.95-25.25c-4.25,3.79-8.73,7.51-12.88,11.58
		c-5.01,4.9-9.59,10.25-14.67,15.07c-1.57,1.49-4.13,2.41-6.34,2.65c-3.87,0.42-7.83,0.12-11.63,0.12
		C202.14,134.09,218.41,116.7,235.56,98.36"/>
	<path id="XMLID_7_" class="st0" d="M259.06,357.77c4.28-5.35,7.85-9.84,11.45-14.3c6.11-7.59,12.16-15.23,18.41-22.7
		c0.97-1.16,2.88-2.25,4.31-2.19c5.74,0.23,11.46,0.93,17.86,1.51c-1.94,3.34-3.68,6.18-5.27,9.1c-4.78,8.79-9.46,17.63-14.28,26.4
		c-0.5,0.91-1.65,2.08-2.51,2.09C279.46,357.82,269.88,357.77,259.06,357.77"/>
</g>
</svg>
